<?xml version="1.0" encoding="UTF-8"?>
<svg xmlns="http://www.w3.org/2000/svg" xmlns:xlink="http://www.w3.org/1999/xlink" width="5000" height="5000" viewBox="0 0 5000 5000">
<defs>
<clipPath id="clip-0">
<path clip-rule="nonzero" d="M 1250 1076 L 3750 1076 L 3750 3924 L 1250 3924 Z M 1250 1076 "/>
</clipPath>
<clipPath id="clip-1">
<path clip-rule="nonzero" d="M 1471.621094 1680.410156 C 1534.488281 2591.828125 1768.871094 3189.019531 2578.761719 3675.570312 L 2582.601562 3677.878906 L 2582.601562 3923.378906 L 2570.019531 3916.351562 C 2124.988281 3667.671875 1754.800781 3348.511719 1529.890625 2882.980469 C 1329.550781 2468.289062 1272.28125 1997.710938 1250.558594 1542.71875 L 1250.011719 1531.300781 L 2582.621094 1076.640625 L 2582.621094 1301.378906 L 1471.628906 1680.410156 Z M 2694.339844 1377.21875 L 2694.339844 1585.269531 C 3172.058594 1620.558594 3542.410156 2019.640625 3542.410156 2499.230469 C 3542.410156 2976.738281 3175.171875 3374.921875 2699.730469 3412.839844 L 2699.730469 3620.890625 C 3289.980469 3582.589844 3750 3091.359375 3750 2499.230469 C 3750 1905 3286.878906 1412.820312 2694.339844 1377.21875 Z M 2581.039062 3114.171875 C 2414.808594 3102.230469 2266.839844 3024.351562 2163.101562 2906.578125 L 2163.128906 2906.558594 C 2111.761719 2848.230469 2071.789062 2780.75 2045.53125 2707.761719 C 2009.550781 2606.011719 1999.921875 2498.738281 2018.589844 2392.378906 C 2058.839844 2169.859375 2212.929688 1992.828125 2415.578125 1919.441406 L 2415.578125 1738.921875 C 2116.199219 1821.738281 1884.710938 2077.089844 1843.570312 2397.390625 C 1830.339844 2503.601562 1837.28125 2608.878906 1866.128906 2712.128906 C 1898.75 2827.480469 1955.660156 2932.050781 2034.738281 3021.511719 L 2035.78125 3022.679688 C 2171.019531 3175.03125 2364.328125 3274.679688 2581.019531 3286.820312 L 2581.019531 3114.160156 Z M 2990.550781 2002.191406 C 3113.820312 2092.558594 3203.078125 2228.058594 3232.191406 2387.179688 L 3233.128906 2392.378906 C 3233.789062 2396.148438 3234.410156 2399.921875 3235 2403.699219 L 3235.5 2407 C 3243.878906 2462.808594 3244.570312 2518.851562 3237.929688 2573.71875 L 3411.25 2573.71875 C 3416.640625 2516.53125 3415.839844 2458.320312 3408.488281 2400.011719 L 3408.160156 2397.390625 C 3377.648438 2162.378906 3245.300781 1962.421875 3058.769531 1839.820312 Z M 2625.871094 2162.339844 C 2441.589844 2162.339844 2292.210938 2311.710938 2292.210938 2495.988281 C 2292.210938 2572.671875 2318.238281 2646.328125 2366.539062 2705.910156 L 2368.738281 2708.640625 L 2285.679688 2791.679688 L 2282.949219 2788.480469 C 2213.101562 2706.660156 2175.148438 2603.570312 2175.148438 2495.988281 C 2175.148438 2247.070312 2376.929688 2045.28125 2625.851562 2045.28125 C 2874.78125 2045.28125 3076.578125 2247.058594 3076.578125 2495.988281 C 3076.578125 2603.570312 3038.609375 2706.671875 2968.738281 2788.480469 L 2966.011719 2791.679688 L 2882.988281 2708.640625 L 2885.210938 2705.910156 C 2933.488281 2646.351562 2959.539062 2572.679688 2959.539062 2495.988281 C 2959.539062 2311.710938 2810.160156 2162.339844 2625.878906 2162.339844 Z M 1731.28125 1755.019531 C 1788.03125 1755.019531 1834.039062 1801.03125 1834.039062 1857.78125 C 1834.039062 1914.539062 1788.03125 1960.550781 1731.28125 1960.550781 C 1674.519531 1960.550781 1628.519531 1914.539062 1628.519531 1857.78125 C 1628.519531 1801.03125 1674.519531 1755.019531 1731.28125 1755.019531 Z M 2625.871094 2375.070312 C 2690.808594 2375.070312 2743.449219 2427.710938 2743.449219 2492.648438 C 2743.449219 2536 2720.019531 2573.851562 2685.128906 2594.238281 L 2732.320312 2903.628906 L 2519.429688 2903.628906 L 2566.621094 2594.238281 C 2531.730469 2573.851562 2508.28125 2536 2508.28125 2492.648438 C 2508.28125 2427.710938 2560.929688 2375.070312 2625.871094 2375.070312 Z M 2625.871094 2375.070312 "/>
</clipPath>
<clipPath id="clip-2">
<path clip-rule="nonzero" d="M 1471.621094 1680.410156 C 1534.488281 2591.828125 1768.871094 3189.019531 2578.761719 3675.570312 L 2582.601562 3677.878906 L 2582.601562 3923.378906 L 2570.019531 3916.351562 C 2124.988281 3667.671875 1754.800781 3348.511719 1529.890625 2882.980469 C 1329.550781 2468.289062 1272.28125 1997.710938 1250.558594 1542.71875 L 1250.011719 1531.300781 L 2582.621094 1076.640625 L 2582.621094 1301.378906 L 1471.628906 1680.410156 Z M 2694.339844 1377.21875 L 2694.339844 1585.269531 C 3172.058594 1620.558594 3542.410156 2019.640625 3542.410156 2499.230469 C 3542.410156 2976.738281 3175.171875 3374.921875 2699.730469 3412.839844 L 2699.730469 3620.890625 C 3289.980469 3582.589844 3750 3091.359375 3750 2499.230469 C 3750 1905 3286.878906 1412.820312 2694.339844 1377.21875 Z M 2581.039062 3114.171875 C 2414.808594 3102.230469 2266.839844 3024.351562 2163.101562 2906.578125 L 2163.128906 2906.558594 C 2111.761719 2848.230469 2071.789062 2780.75 2045.53125 2707.761719 C 2009.550781 2606.011719 1999.921875 2498.738281 2018.589844 2392.378906 C 2058.839844 2169.859375 2212.929688 1992.828125 2415.578125 1919.441406 L 2415.578125 1738.921875 C 2116.199219 1821.738281 1884.710938 2077.089844 1843.570312 2397.390625 C 1830.339844 2503.601562 1837.28125 2608.878906 1866.128906 2712.128906 C 1898.75 2827.480469 1955.660156 2932.050781 2034.738281 3021.511719 L 2035.78125 3022.679688 C 2171.019531 3175.03125 2364.328125 3274.679688 2581.019531 3286.820312 L 2581.019531 3114.160156 Z M 2990.550781 2002.191406 C 3113.820312 2092.558594 3203.078125 2228.058594 3232.191406 2387.179688 L 3233.128906 2392.378906 C 3233.789062 2396.148438 3234.410156 2399.921875 3235 2403.699219 L 3235.5 2407 C 3243.878906 2462.808594 3244.570312 2518.851562 3237.929688 2573.71875 L 3411.25 2573.71875 C 3416.640625 2516.53125 3415.839844 2458.320312 3408.488281 2400.011719 L 3408.160156 2397.390625 C 3377.648438 2162.378906 3245.300781 1962.421875 3058.769531 1839.820312 Z M 2625.871094 2162.339844 C 2441.589844 2162.339844 2292.210938 2311.710938 2292.210938 2495.988281 C 2292.210938 2572.671875 2318.238281 2646.328125 2366.539062 2705.910156 L 2368.738281 2708.640625 L 2285.679688 2791.679688 L 2282.949219 2788.480469 C 2213.101562 2706.660156 2175.148438 2603.570312 2175.148438 2495.988281 C 2175.148438 2247.070312 2376.929688 2045.28125 2625.851562 2045.28125 C 2874.78125 2045.28125 3076.578125 2247.058594 3076.578125 2495.988281 C 3076.578125 2603.570312 3038.609375 2706.671875 2968.738281 2788.480469 L 2966.011719 2791.679688 L 2882.988281 2708.640625 L 2885.210938 2705.910156 C 2933.488281 2646.351562 2959.539062 2572.679688 2959.539062 2495.988281 C 2959.539062 2311.710938 2810.160156 2162.339844 2625.878906 2162.339844 Z M 1731.28125 1755.019531 C 1788.03125 1755.019531 1834.039062 1801.03125 1834.039062 1857.78125 C 1834.039062 1914.539062 1788.03125 1960.550781 1731.28125 1960.550781 C 1674.519531 1960.550781 1628.519531 1914.539062 1628.519531 1857.78125 C 1628.519531 1801.03125 1674.519531 1755.019531 1731.28125 1755.019531 Z M 2625.871094 2375.070312 C 2690.808594 2375.070312 2743.449219 2427.710938 2743.449219 2492.648438 C 2743.449219 2536 2720.019531 2573.851562 2685.128906 2594.238281 L 2732.320312 2903.628906 L 2519.429688 2903.628906 L 2566.621094 2594.238281 C 2531.730469 2573.851562 2508.28125 2536 2508.28125 2492.648438 C 2508.28125 2427.710938 2560.929688 2375.070312 2625.871094 2375.070312 "/>
</clipPath>
<linearGradient id="linear-pattern-0" gradientUnits="userSpaceOnUse" x1="0.088103" y1="0" x2="0.711056" y2="0" gradientTransform="matrix(11.5963, 4579.88, 4579.88, -11.5963, 2496.6, 669.98)">
<stop offset="0" stop-color="rgb(75.431824%, 0%, 0%)" stop-opacity="1"/>
<stop offset="0.0078125" stop-color="rgb(75.273132%, 0%, 0%)" stop-opacity="1"/>
<stop offset="0.015625" stop-color="rgb(74.95575%, 0%, 0%)" stop-opacity="1"/>
<stop offset="0.0234375" stop-color="rgb(74.638367%, 0%, 0%)" stop-opacity="1"/>
<stop offset="0.03125" stop-color="rgb(74.32251%, 0%, 0%)" stop-opacity="1"/>
<stop offset="0.0390625" stop-color="rgb(74.005127%, 0%, 0%)" stop-opacity="1"/>
<stop offset="0.046875" stop-color="rgb(73.687744%, 0%, 0%)" stop-opacity="1"/>
<stop offset="0.0546875" stop-color="rgb(73.370361%, 0%, 0%)" stop-opacity="1"/>
<stop offset="0.0625" stop-color="rgb(73.052979%, 0%, 0%)" stop-opacity="1"/>
<stop offset="0.0703125" stop-color="rgb(72.735596%, 0%, 0%)" stop-opacity="1"/>
<stop offset="0.078125" stop-color="rgb(72.418213%, 0%, 0%)" stop-opacity="1"/>
<stop offset="0.0859375" stop-color="rgb(72.10083%, 0%, 0%)" stop-opacity="1"/>
<stop offset="0.09375" stop-color="rgb(71.783447%, 0%, 0%)" stop-opacity="1"/>
<stop offset="0.101563" stop-color="rgb(71.466064%, 0%, 0%)" stop-opacity="1"/>
<stop offset="0.109375" stop-color="rgb(71.148682%, 0%, 0%)" stop-opacity="1"/>
<stop offset="0.117188" stop-color="rgb(70.831299%, 0%, 0%)" stop-opacity="1"/>
<stop offset="0.125" stop-color="rgb(70.513916%, 0%, 0%)" stop-opacity="1"/>
<stop offset="0.132812" stop-color="rgb(70.198059%, 0%, 0%)" stop-opacity="1"/>
<stop offset="0.140625" stop-color="rgb(69.880676%, 0%, 0%)" stop-opacity="1"/>
<stop offset="0.148438" stop-color="rgb(69.563293%, 0%, 0%)" stop-opacity="1"/>
<stop offset="0.15625" stop-color="rgb(69.245911%, 0%, 0%)" stop-opacity="1"/>
<stop offset="0.164062" stop-color="rgb(68.928528%, 0%, 0%)" stop-opacity="1"/>
<stop offset="0.171875" stop-color="rgb(68.611145%, 0%, 0%)" stop-opacity="1"/>
<stop offset="0.179688" stop-color="rgb(68.293762%, 0%, 0%)" stop-opacity="1"/>
<stop offset="0.1875" stop-color="rgb(67.976379%, 0%, 0%)" stop-opacity="1"/>
<stop offset="0.195313" stop-color="rgb(67.658997%, 0%, 0%)" stop-opacity="1"/>
<stop offset="0.203125" stop-color="rgb(67.341614%, 0%, 0%)" stop-opacity="1"/>
<stop offset="0.210938" stop-color="rgb(67.024231%, 0%, 0%)" stop-opacity="1"/>
<stop offset="0.21875" stop-color="rgb(66.706848%, 0%, 0%)" stop-opacity="1"/>
<stop offset="0.226562" stop-color="rgb(66.389465%, 0%, 0%)" stop-opacity="1"/>
<stop offset="0.234375" stop-color="rgb(66.073608%, 0%, 0%)" stop-opacity="1"/>
<stop offset="0.242188" stop-color="rgb(65.756226%, 0%, 0%)" stop-opacity="1"/>
<stop offset="0.25" stop-color="rgb(65.438843%, 0%, 0%)" stop-opacity="1"/>
<stop offset="0.257812" stop-color="rgb(65.12146%, 0%, 0%)" stop-opacity="1"/>
<stop offset="0.265625" stop-color="rgb(64.804077%, 0%, 0%)" stop-opacity="1"/>
<stop offset="0.273438" stop-color="rgb(64.486694%, 0%, 0%)" stop-opacity="1"/>
<stop offset="0.28125" stop-color="rgb(64.169312%, 0%, 0%)" stop-opacity="1"/>
<stop offset="0.289063" stop-color="rgb(63.851929%, 0%, 0%)" stop-opacity="1"/>
<stop offset="0.296875" stop-color="rgb(63.534546%, 0%, 0%)" stop-opacity="1"/>
<stop offset="0.304688" stop-color="rgb(63.217163%, 0%, 0%)" stop-opacity="1"/>
<stop offset="0.3125" stop-color="rgb(62.89978%, 0%, 0%)" stop-opacity="1"/>
<stop offset="0.320313" stop-color="rgb(62.582397%, 0%, 0%)" stop-opacity="1"/>
<stop offset="0.328125" stop-color="rgb(62.265015%, 0%, 0%)" stop-opacity="1"/>
<stop offset="0.335938" stop-color="rgb(61.947632%, 0%, 0%)" stop-opacity="1"/>
<stop offset="0.34375" stop-color="rgb(61.631775%, 0%, 0%)" stop-opacity="1"/>
<stop offset="0.351562" stop-color="rgb(61.314392%, 0%, 0%)" stop-opacity="1"/>
<stop offset="0.359375" stop-color="rgb(60.997009%, 0%, 0%)" stop-opacity="1"/>
<stop offset="0.367188" stop-color="rgb(60.679626%, 0%, 0%)" stop-opacity="1"/>
<stop offset="0.375" stop-color="rgb(60.362244%, 0%, 0%)" stop-opacity="1"/>
<stop offset="0.382813" stop-color="rgb(60.044861%, 0%, 0%)" stop-opacity="1"/>
<stop offset="0.390625" stop-color="rgb(59.727478%, 0%, 0%)" stop-opacity="1"/>
<stop offset="0.398438" stop-color="rgb(59.410095%, 0%, 0%)" stop-opacity="1"/>
<stop offset="0.40625" stop-color="rgb(59.092712%, 0%, 0%)" stop-opacity="1"/>
<stop offset="0.414063" stop-color="rgb(58.77533%, 0%, 0%)" stop-opacity="1"/>
<stop offset="0.421875" stop-color="rgb(58.457947%, 0%, 0%)" stop-opacity="1"/>
<stop offset="0.429688" stop-color="rgb(58.140564%, 0%, 0%)" stop-opacity="1"/>
<stop offset="0.4375" stop-color="rgb(57.823181%, 0%, 0%)" stop-opacity="1"/>
<stop offset="0.445312" stop-color="rgb(57.507324%, 0%, 0%)" stop-opacity="1"/>
<stop offset="0.453125" stop-color="rgb(57.189941%, 0%, 0%)" stop-opacity="1"/>
<stop offset="0.460938" stop-color="rgb(56.872559%, 0%, 0%)" stop-opacity="1"/>
<stop offset="0.46875" stop-color="rgb(56.555176%, 0%, 0%)" stop-opacity="1"/>
<stop offset="0.476562" stop-color="rgb(56.237793%, 0%, 0%)" stop-opacity="1"/>
<stop offset="0.484375" stop-color="rgb(55.92041%, 0%, 0%)" stop-opacity="1"/>
<stop offset="0.492187" stop-color="rgb(55.603027%, 0%, 0%)" stop-opacity="1"/>
<stop offset="0.5" stop-color="rgb(55.285645%, 0%, 0%)" stop-opacity="1"/>
<stop offset="0.507813" stop-color="rgb(54.968262%, 0%, 0%)" stop-opacity="1"/>
<stop offset="0.515625" stop-color="rgb(54.650879%, 0%, 0%)" stop-opacity="1"/>
<stop offset="0.523438" stop-color="rgb(54.333496%, 0%, 0%)" stop-opacity="1"/>
<stop offset="0.53125" stop-color="rgb(54.016113%, 0%, 0%)" stop-opacity="1"/>
<stop offset="0.539062" stop-color="rgb(53.69873%, 0%, 0%)" stop-opacity="1"/>
<stop offset="0.546875" stop-color="rgb(53.382874%, 0%, 0%)" stop-opacity="1"/>
<stop offset="0.554688" stop-color="rgb(53.065491%, 0%, 0%)" stop-opacity="1"/>
<stop offset="0.5625" stop-color="rgb(52.748108%, 0%, 0%)" stop-opacity="1"/>
<stop offset="0.570312" stop-color="rgb(52.430725%, 0%, 0%)" stop-opacity="1"/>
<stop offset="0.578125" stop-color="rgb(52.113342%, 0%, 0%)" stop-opacity="1"/>
<stop offset="0.585938" stop-color="rgb(51.795959%, 0%, 0%)" stop-opacity="1"/>
<stop offset="0.59375" stop-color="rgb(51.478577%, 0%, 0%)" stop-opacity="1"/>
<stop offset="0.601563" stop-color="rgb(51.161194%, 0%, 0%)" stop-opacity="1"/>
<stop offset="0.609375" stop-color="rgb(50.843811%, 0%, 0%)" stop-opacity="1"/>
<stop offset="0.617188" stop-color="rgb(50.526428%, 0%, 0%)" stop-opacity="1"/>
<stop offset="0.625" stop-color="rgb(50.209045%, 0%, 0%)" stop-opacity="1"/>
<stop offset="0.632812" stop-color="rgb(49.891663%, 0%, 0%)" stop-opacity="1"/>
<stop offset="0.640625" stop-color="rgb(49.57428%, 0%, 0%)" stop-opacity="1"/>
<stop offset="0.648438" stop-color="rgb(49.256897%, 0%, 0%)" stop-opacity="1"/>
<stop offset="0.65625" stop-color="rgb(48.94104%, 0%, 0%)" stop-opacity="1"/>
<stop offset="0.664063" stop-color="rgb(48.623657%, 0%, 0%)" stop-opacity="1"/>
<stop offset="0.671875" stop-color="rgb(48.306274%, 0%, 0%)" stop-opacity="1"/>
<stop offset="0.679688" stop-color="rgb(47.988892%, 0%, 0%)" stop-opacity="1"/>
<stop offset="0.6875" stop-color="rgb(47.671509%, 0%, 0%)" stop-opacity="1"/>
<stop offset="0.695313" stop-color="rgb(47.354126%, 0%, 0%)" stop-opacity="1"/>
<stop offset="0.703125" stop-color="rgb(47.036743%, 0%, 0%)" stop-opacity="1"/>
<stop offset="0.710938" stop-color="rgb(46.71936%, 0%, 0%)" stop-opacity="1"/>
<stop offset="0.71875" stop-color="rgb(46.401978%, 0%, 0%)" stop-opacity="1"/>
<stop offset="0.726562" stop-color="rgb(46.084595%, 0%, 0%)" stop-opacity="1"/>
<stop offset="0.734375" stop-color="rgb(45.767212%, 0%, 0%)" stop-opacity="1"/>
<stop offset="0.742187" stop-color="rgb(45.449829%, 0%, 0%)" stop-opacity="1"/>
<stop offset="0.75" stop-color="rgb(45.132446%, 0%, 0%)" stop-opacity="1"/>
<stop offset="0.757813" stop-color="rgb(44.816589%, 0%, 0%)" stop-opacity="1"/>
<stop offset="0.765625" stop-color="rgb(44.499207%, 0%, 0%)" stop-opacity="1"/>
<stop offset="0.773438" stop-color="rgb(44.181824%, 0%, 0%)" stop-opacity="1"/>
<stop offset="0.78125" stop-color="rgb(43.864441%, 0%, 0%)" stop-opacity="1"/>
<stop offset="0.789063" stop-color="rgb(43.547058%, 0%, 0%)" stop-opacity="1"/>
<stop offset="0.796875" stop-color="rgb(43.229675%, 0%, 0%)" stop-opacity="1"/>
<stop offset="0.804688" stop-color="rgb(42.912292%, 0%, 0%)" stop-opacity="1"/>
<stop offset="0.8125" stop-color="rgb(42.59491%, 0%, 0%)" stop-opacity="1"/>
<stop offset="0.820312" stop-color="rgb(42.277527%, 0%, 0%)" stop-opacity="1"/>
<stop offset="0.828125" stop-color="rgb(41.960144%, 0%, 0%)" stop-opacity="1"/>
<stop offset="0.835937" stop-color="rgb(41.642761%, 0%, 0%)" stop-opacity="1"/>
<stop offset="0.84375" stop-color="rgb(41.325378%, 0%, 0%)" stop-opacity="1"/>
<stop offset="0.851563" stop-color="rgb(41.007996%, 0%, 0%)" stop-opacity="1"/>
<stop offset="0.855469" stop-color="rgb(40.611267%, 0%, 0%)" stop-opacity="1"/>
<stop offset="0.859375" stop-color="rgb(40.371704%, 0%, 0%)" stop-opacity="1"/>
<stop offset="0.863281" stop-color="rgb(40.110779%, 0%, 0%)" stop-opacity="1"/>
<stop offset="0.867188" stop-color="rgb(39.849854%, 0%, 0%)" stop-opacity="1"/>
<stop offset="0.871094" stop-color="rgb(39.588928%, 0%, 0%)" stop-opacity="1"/>
<stop offset="0.875" stop-color="rgb(39.328003%, 0%, 0%)" stop-opacity="1"/>
<stop offset="0.878906" stop-color="rgb(39.067078%, 0%, 0%)" stop-opacity="1"/>
<stop offset="0.882813" stop-color="rgb(38.806152%, 0%, 0%)" stop-opacity="1"/>
<stop offset="0.886719" stop-color="rgb(38.545227%, 0%, 0%)" stop-opacity="1"/>
<stop offset="0.890625" stop-color="rgb(38.284302%, 0%, 0%)" stop-opacity="1"/>
<stop offset="0.894531" stop-color="rgb(38.023376%, 0%, 0%)" stop-opacity="1"/>
<stop offset="0.898438" stop-color="rgb(37.762451%, 0%, 0%)" stop-opacity="1"/>
<stop offset="0.902344" stop-color="rgb(37.501526%, 0%, 0%)" stop-opacity="1"/>
<stop offset="0.90625" stop-color="rgb(37.240601%, 0%, 0%)" stop-opacity="1"/>
<stop offset="0.910156" stop-color="rgb(36.979675%, 0%, 0%)" stop-opacity="1"/>
<stop offset="0.914062" stop-color="rgb(36.71875%, 0%, 0%)" stop-opacity="1"/>
<stop offset="0.917969" stop-color="rgb(36.457825%, 0%, 0%)" stop-opacity="1"/>
<stop offset="0.921875" stop-color="rgb(36.196899%, 0%, 0%)" stop-opacity="1"/>
<stop offset="0.925781" stop-color="rgb(35.935974%, 0%, 0%)" stop-opacity="1"/>
<stop offset="0.929687" stop-color="rgb(35.675049%, 0%, 0%)" stop-opacity="1"/>
<stop offset="0.933594" stop-color="rgb(35.414124%, 0%, 0%)" stop-opacity="1"/>
<stop offset="0.9375" stop-color="rgb(35.153198%, 0%, 0%)" stop-opacity="1"/>
<stop offset="0.941406" stop-color="rgb(34.892273%, 0%, 0%)" stop-opacity="1"/>
<stop offset="0.945313" stop-color="rgb(34.631348%, 0%, 0%)" stop-opacity="1"/>
<stop offset="0.949219" stop-color="rgb(34.370422%, 0%, 0%)" stop-opacity="1"/>
<stop offset="0.953125" stop-color="rgb(34.109497%, 0%, 0%)" stop-opacity="1"/>
<stop offset="0.957031" stop-color="rgb(33.848572%, 0%, 0%)" stop-opacity="1"/>
<stop offset="0.960938" stop-color="rgb(33.587646%, 0%, 0%)" stop-opacity="1"/>
<stop offset="0.964844" stop-color="rgb(33.326721%, 0%, 0%)" stop-opacity="1"/>
<stop offset="0.96875" stop-color="rgb(33.065796%, 0%, 0%)" stop-opacity="1"/>
<stop offset="0.972656" stop-color="rgb(32.804871%, 0%, 0%)" stop-opacity="1"/>
<stop offset="0.976563" stop-color="rgb(32.543945%, 0%, 0%)" stop-opacity="1"/>
<stop offset="0.980469" stop-color="rgb(32.28302%, 0%, 0%)" stop-opacity="1"/>
<stop offset="0.984375" stop-color="rgb(32.022095%, 0%, 0%)" stop-opacity="1"/>
<stop offset="0.988281" stop-color="rgb(31.761169%, 0%, 0%)" stop-opacity="1"/>
<stop offset="0.992188" stop-color="rgb(31.500244%, 0%, 0%)" stop-opacity="1"/>
<stop offset="0.996094" stop-color="rgb(31.239319%, 0%, 0%)" stop-opacity="1"/>
<stop offset="1" stop-color="rgb(30.978394%, 0%, 0%)" stop-opacity="1"/>
</linearGradient>
</defs>
<rect x="-500" y="-500" width="6000" height="6000" fill="rgb(100%, 100%, 100%)" fill-opacity="1"/>
<g clip-path="url(#clip-0)">
<g clip-path="url(#clip-1)">
<g clip-path="url(#clip-2)">
<path fill-rule="nonzero" fill="url(#linear-pattern-0)" d="M 1242.800781 1076.660156 L 3749.984375 1070.308594 L 3757.207031 3923.363281 L 1250.027344 3929.710938 Z M 1242.800781 1076.660156 "/>
</g>
</g>
</g>
</svg>
